<svg xmlns="http://www.w3.org/2000/svg" width='52' viewBox="0 0 24 24"><path fill="#303c42" d="M15.5 8h1c.827 0 1.5.673 1.5 1.5a.5.5 0 0 0 1 0C19 8.122 17.878 7 16.5 7h-1A2.503 2.503 0 0 0 13 9.5v4c0 1.378 1.122 2.5 2.5 2.5h1c1.378 0 2.5-1.122 2.5-2.5a.5.5 0 0 0-1 0c0 .827-.673 1.5-1.5 1.5h-1c-.827 0-1.5-.673-1.5-1.5v-4c0-.827.673-1.5 1.5-1.5zm6-1c-.827 0-1.5.673-1.5 1.5s.673 1.5 1.5 1.5S23 9.327 23 8.5 22.327 7 21.5 7zm0 2a.5.5 0 1 1 0-1 .5.5 0 0 1 0 1zM11 18.066V2.5C11 1.122 9.878 0 8.5 0S6 1.122 6 2.5v15.566c-.638.654-1 1.529-1 2.434C5 22.43 6.57 24 8.5 24s3.5-1.57 3.5-3.5c0-.905-.362-1.78-1-2.434z"/><path fill="#e6e6e6" d="M8.5 23A2.503 2.503 0 0 1 6 20.5c0-.708.296-1.365.835-1.85A.501.501 0 0 0 7 18.278V2.5C7 1.673 7.673 1 8.5 1s1.5.673 1.5 1.5v15.778c0 .142.06.276.165.372.539.485.835 1.142.835 1.85 0 1.378-1.122 2.5-2.5 2.5z"/><path fill="#fff" d="M6.5 21c0-.708.296-1.365.835-1.85a.501.501 0 0 0 .165-.372V3c0-.827.673-1.5 1.5-1.5.285 0 .549.084.777.223A1.498 1.498 0 0 0 8.5 1C7.673 1 7 1.673 7 2.5v15.778c0 .142-.06.276-.165.372A2.465 2.465 0 0 0 6 20.5a2.49 2.49 0 0 0 1.007 1.993A2.475 2.475 0 0 1 6.5 21z" opacity=".2"/><path fill="#303c42" d="M4.5 16h-3a.5.5 0 0 0 0 1h3a.5.5 0 0 0 0-1zm0-2h-1a.5.5 0 0 0 0 1h1a.5.5 0 0 0 0-1zm0-2h-1a.5.5 0 0 0 0 1h1a.5.5 0 0 0 0-1zm-3-1h3a.5.5 0 0 0 0-1h-3a.5.5 0 0 0 0 1zm0-6h3a.5.5 0 0 0 0-1h-3a.5.5 0 0 0 0 1zm3 3h-1a.5.5 0 0 0 0 1h1a.5.5 0 0 0 0-1zm0-2h-1a.5.5 0 0 0 0 1h1a.5.5 0 0 0 0-1z"/><path fill="#d32f2f" d="M9 19.654V10.5a.5.5 0 0 0-1 0v9.154a.987.987 0 0 0-.5.846 1 1 0 0 0 2 0 .985.985 0 0 0-.5-.846z"/><linearGradient id="a" x1="-.596" x2="19.177" y1="7.81" y2="17.03" gradientUnits="userSpaceOnUse"><stop offset="0" stop-color="#fff" stop-opacity=".2"/><stop offset="1" stop-color="#fff" stop-opacity="0"/></linearGradient><path fill="url(#a)" d="M15.5 8h1c.827 0 1.5.673 1.5 1.5a.5.5 0 0 0 1 0C19 8.122 17.878 7 16.5 7h-1A2.503 2.503 0 0 0 13 9.5v4c0 1.378 1.122 2.5 2.5 2.5h1c1.378 0 2.5-1.122 2.5-2.5a.5.5 0 0 0-1 0c0 .827-.673 1.5-1.5 1.5h-1c-.827 0-1.5-.673-1.5-1.5v-4c0-.827.673-1.5 1.5-1.5zm6-1c-.827 0-1.5.673-1.5 1.5s.673 1.5 1.5 1.5S23 9.327 23 8.5 22.327 7 21.5 7zm0 2a.5.5 0 1 1 0-1 .5.5 0 0 1 0 1zM11 2.5C11 1.122 9.878 0 8.5 0S6 1.122 6 2.5v15.566c-.638.654-1 1.529-1 2.434C5 22.43 6.57 24 8.5 24s3.5-1.57 3.5-3.5c0-.905-.362-1.78-1-2.434V2.5zM4.5 16h-3a.5.5 0 0 0 0 1h3a.5.5 0 0 0 0-1zm0-2h-1a.5.5 0 0 0 0 1h1a.5.5 0 0 0 0-1zm0-2h-1a.5.5 0 0 0 0 1h1a.5.5 0 0 0 0-1zm-3-1h3a.5.5 0 0 0 0-1h-3a.5.5 0 0 0 0 1zm0-6h3a.5.5 0 0 0 0-1h-3a.5.5 0 0 0 0 1zm3 3h-1a.5.5 0 0 0 0 1h1a.5.5 0 0 0 0-1zm0-2h-1a.5.5 0 0 0 0 1h1a.5.5 0 0 0 0-1z"/></svg>