<svg xmlns="http://www.w3.org/2000/svg" width="70" viewBox="0 0 64 64">
  <path d="M56.19 31.9h-8.14l-3.43-13.75A1.5 1.5 0 0 0 43.16 17a1.5 1.5 0 0 0-1.43 1.21l-5.12 25.4-2.21-10.52a1.5 1.5 0 0 0-2.86-.25L30 36.7l-3-24.88a1.5 1.5 0 0 0-1.49-1.32A1.5 1.5 0 0 0 24 11.83l-3.73 32.1-2.63-10a1.5 1.5 0 0 0-1.45-1.12H7.81a1.5 1.5 0 1 0 0 3H15l4.36 16.56a1.5 1.5 0 0 0 1.45 1.12h.11a1.5 1.5 0 0 0 1.38-1.32l3.19-27.45 2.2 18.16a1.5 1.5 0 0 0 2.88.38l1.88-4.7 2.7 12.83a1.5 1.5 0 0 0 1.47 1.19 1.5 1.5 0 0 0 1.46-1.21l5.2-26 2.1 8.41a1.5 1.5 0 0 0 1.46 1.14h9.3a1.5 1.5 0 1 0 0-3Z" data-name="Layer 33" fill="#fff"/>
</svg>
